<mxfile host="app.diagrams.net" modified="2023-12-15T02:48:00.819Z" agent="Mozilla/5.0 (Windows NT 10.0; Win64; x64) AppleWebKit/537.36 (KHTML, like Gecko) Chrome/120.0.0.0 Safari/537.36" etag="u6e4YxQ9o6vHItCpXNnw" version="22.1.9" type="device">
  <diagram id="R2lEEEUBdFMjLlhIrx00" name="Page-1">
    <mxGraphModel dx="1221" dy="638" grid="1" gridSize="10" guides="1" tooltips="1" connect="1" arrows="1" fold="1" page="1" pageScale="1" pageWidth="850" pageHeight="1100" math="0" shadow="0" extFonts="Permanent Marker^https://fonts.googleapis.com/css?family=Permanent+Marker">
      <root>
        <mxCell id="0" />
        <mxCell id="1" parent="0" />
        <mxCell id="C-vyLk0tnHw3VtMMgP7b-2" value="Course" style="shape=table;startSize=30;container=1;collapsible=1;childLayout=tableLayout;fixedRows=1;rowLines=0;fontStyle=1;align=center;resizeLast=1;" parent="1" vertex="1">
          <mxGeometry x="590" y="70" width="250" height="140" as="geometry" />
        </mxCell>
        <mxCell id="C-vyLk0tnHw3VtMMgP7b-3" value="" style="shape=partialRectangle;collapsible=0;dropTarget=0;pointerEvents=0;fillColor=none;points=[[0,0.5],[1,0.5]];portConstraint=eastwest;top=0;left=0;right=0;bottom=1;" parent="C-vyLk0tnHw3VtMMgP7b-2" vertex="1">
          <mxGeometry y="30" width="250" height="30" as="geometry" />
        </mxCell>
        <mxCell id="C-vyLk0tnHw3VtMMgP7b-4" value="PK" style="shape=partialRectangle;overflow=hidden;connectable=0;fillColor=none;top=0;left=0;bottom=0;right=0;fontStyle=1;" parent="C-vyLk0tnHw3VtMMgP7b-3" vertex="1">
          <mxGeometry width="30" height="30" as="geometry">
            <mxRectangle width="30" height="30" as="alternateBounds" />
          </mxGeometry>
        </mxCell>
        <mxCell id="C-vyLk0tnHw3VtMMgP7b-5" value="courseId" style="shape=partialRectangle;overflow=hidden;connectable=0;fillColor=none;top=0;left=0;bottom=0;right=0;align=left;spacingLeft=6;fontStyle=5;" parent="C-vyLk0tnHw3VtMMgP7b-3" vertex="1">
          <mxGeometry x="30" width="220" height="30" as="geometry">
            <mxRectangle width="220" height="30" as="alternateBounds" />
          </mxGeometry>
        </mxCell>
        <mxCell id="C-vyLk0tnHw3VtMMgP7b-6" value="" style="shape=partialRectangle;collapsible=0;dropTarget=0;pointerEvents=0;fillColor=none;points=[[0,0.5],[1,0.5]];portConstraint=eastwest;top=0;left=0;right=0;bottom=0;" parent="C-vyLk0tnHw3VtMMgP7b-2" vertex="1">
          <mxGeometry y="60" width="250" height="20" as="geometry" />
        </mxCell>
        <mxCell id="C-vyLk0tnHw3VtMMgP7b-7" value="" style="shape=partialRectangle;overflow=hidden;connectable=0;fillColor=none;top=0;left=0;bottom=0;right=0;" parent="C-vyLk0tnHw3VtMMgP7b-6" vertex="1">
          <mxGeometry width="30" height="20" as="geometry">
            <mxRectangle width="30" height="20" as="alternateBounds" />
          </mxGeometry>
        </mxCell>
        <mxCell id="C-vyLk0tnHw3VtMMgP7b-8" value="sub" style="shape=partialRectangle;overflow=hidden;connectable=0;fillColor=none;top=0;left=0;bottom=0;right=0;align=left;spacingLeft=6;" parent="C-vyLk0tnHw3VtMMgP7b-6" vertex="1">
          <mxGeometry x="30" width="220" height="20" as="geometry">
            <mxRectangle width="220" height="20" as="alternateBounds" />
          </mxGeometry>
        </mxCell>
        <mxCell id="C-vyLk0tnHw3VtMMgP7b-9" value="" style="shape=partialRectangle;collapsible=0;dropTarget=0;pointerEvents=0;fillColor=none;points=[[0,0.5],[1,0.5]];portConstraint=eastwest;top=0;left=0;right=0;bottom=0;" parent="C-vyLk0tnHw3VtMMgP7b-2" vertex="1">
          <mxGeometry y="80" width="250" height="60" as="geometry" />
        </mxCell>
        <mxCell id="C-vyLk0tnHw3VtMMgP7b-10" value="" style="shape=partialRectangle;overflow=hidden;connectable=0;fillColor=none;top=0;left=0;bottom=0;right=0;" parent="C-vyLk0tnHw3VtMMgP7b-9" vertex="1">
          <mxGeometry width="30" height="60" as="geometry">
            <mxRectangle width="30" height="60" as="alternateBounds" />
          </mxGeometry>
        </mxCell>
        <mxCell id="C-vyLk0tnHw3VtMMgP7b-11" value="credit_hrs&#xa;&#xa;dept" style="shape=partialRectangle;overflow=hidden;connectable=0;fillColor=none;top=0;left=0;bottom=0;right=0;align=left;spacingLeft=6;" parent="C-vyLk0tnHw3VtMMgP7b-9" vertex="1">
          <mxGeometry x="30" width="220" height="60" as="geometry">
            <mxRectangle width="220" height="60" as="alternateBounds" />
          </mxGeometry>
        </mxCell>
        <mxCell id="C-vyLk0tnHw3VtMMgP7b-13" value="Enrollment" style="shape=table;startSize=30;container=1;collapsible=1;childLayout=tableLayout;fixedRows=1;rowLines=0;fontStyle=1;align=center;resizeLast=1;" parent="1" vertex="1">
          <mxGeometry x="590" y="430" width="250" height="150" as="geometry" />
        </mxCell>
        <mxCell id="C-vyLk0tnHw3VtMMgP7b-14" value="" style="shape=partialRectangle;collapsible=0;dropTarget=0;pointerEvents=0;fillColor=none;points=[[0,0.5],[1,0.5]];portConstraint=eastwest;top=0;left=0;right=0;bottom=1;" parent="C-vyLk0tnHw3VtMMgP7b-13" vertex="1">
          <mxGeometry y="30" width="250" height="30" as="geometry" />
        </mxCell>
        <mxCell id="C-vyLk0tnHw3VtMMgP7b-15" value="PK" style="shape=partialRectangle;overflow=hidden;connectable=0;fillColor=none;top=0;left=0;bottom=0;right=0;fontStyle=1;" parent="C-vyLk0tnHw3VtMMgP7b-14" vertex="1">
          <mxGeometry width="30" height="30" as="geometry">
            <mxRectangle width="30" height="30" as="alternateBounds" />
          </mxGeometry>
        </mxCell>
        <mxCell id="C-vyLk0tnHw3VtMMgP7b-16" value="eId" style="shape=partialRectangle;overflow=hidden;connectable=0;fillColor=none;top=0;left=0;bottom=0;right=0;align=left;spacingLeft=6;fontStyle=5;" parent="C-vyLk0tnHw3VtMMgP7b-14" vertex="1">
          <mxGeometry x="30" width="220" height="30" as="geometry">
            <mxRectangle width="220" height="30" as="alternateBounds" />
          </mxGeometry>
        </mxCell>
        <mxCell id="C-vyLk0tnHw3VtMMgP7b-17" value="" style="shape=partialRectangle;collapsible=0;dropTarget=0;pointerEvents=0;fillColor=none;points=[[0,0.5],[1,0.5]];portConstraint=eastwest;top=0;left=0;right=0;bottom=0;" parent="C-vyLk0tnHw3VtMMgP7b-13" vertex="1">
          <mxGeometry y="60" width="250" height="30" as="geometry" />
        </mxCell>
        <mxCell id="C-vyLk0tnHw3VtMMgP7b-18" value="FK1" style="shape=partialRectangle;overflow=hidden;connectable=0;fillColor=none;top=0;left=0;bottom=0;right=0;" parent="C-vyLk0tnHw3VtMMgP7b-17" vertex="1">
          <mxGeometry width="30" height="30" as="geometry">
            <mxRectangle width="30" height="30" as="alternateBounds" />
          </mxGeometry>
        </mxCell>
        <mxCell id="C-vyLk0tnHw3VtMMgP7b-19" value="studentId" style="shape=partialRectangle;overflow=hidden;connectable=0;fillColor=none;top=0;left=0;bottom=0;right=0;align=left;spacingLeft=6;" parent="C-vyLk0tnHw3VtMMgP7b-17" vertex="1">
          <mxGeometry x="30" width="220" height="30" as="geometry">
            <mxRectangle width="220" height="30" as="alternateBounds" />
          </mxGeometry>
        </mxCell>
        <mxCell id="C-vyLk0tnHw3VtMMgP7b-20" value="" style="shape=partialRectangle;collapsible=0;dropTarget=0;pointerEvents=0;fillColor=none;points=[[0,0.5],[1,0.5]];portConstraint=eastwest;top=0;left=0;right=0;bottom=0;" parent="C-vyLk0tnHw3VtMMgP7b-13" vertex="1">
          <mxGeometry y="90" width="250" height="60" as="geometry" />
        </mxCell>
        <mxCell id="C-vyLk0tnHw3VtMMgP7b-21" value="" style="shape=partialRectangle;overflow=hidden;connectable=0;fillColor=none;top=0;left=0;bottom=0;right=0;" parent="C-vyLk0tnHw3VtMMgP7b-20" vertex="1">
          <mxGeometry width="30" height="60" as="geometry">
            <mxRectangle width="30" height="60" as="alternateBounds" />
          </mxGeometry>
        </mxCell>
        <mxCell id="C-vyLk0tnHw3VtMMgP7b-22" value="courseId&#xa;&#xa;semester" style="shape=partialRectangle;overflow=hidden;connectable=0;fillColor=none;top=0;left=0;bottom=0;right=0;align=left;spacingLeft=6;" parent="C-vyLk0tnHw3VtMMgP7b-20" vertex="1">
          <mxGeometry x="30" width="220" height="60" as="geometry">
            <mxRectangle width="220" height="60" as="alternateBounds" />
          </mxGeometry>
        </mxCell>
        <mxCell id="C-vyLk0tnHw3VtMMgP7b-23" value="Student" style="shape=table;startSize=30;container=1;collapsible=1;childLayout=tableLayout;fixedRows=1;rowLines=0;fontStyle=1;align=center;resizeLast=1;" parent="1" vertex="1">
          <mxGeometry x="310" y="240" width="250" height="140" as="geometry">
            <mxRectangle x="120" y="120" width="90" height="30" as="alternateBounds" />
          </mxGeometry>
        </mxCell>
        <mxCell id="C-vyLk0tnHw3VtMMgP7b-24" value="" style="shape=partialRectangle;collapsible=0;dropTarget=0;pointerEvents=0;fillColor=none;points=[[0,0.5],[1,0.5]];portConstraint=eastwest;top=0;left=0;right=0;bottom=1;" parent="C-vyLk0tnHw3VtMMgP7b-23" vertex="1">
          <mxGeometry y="30" width="250" height="30" as="geometry" />
        </mxCell>
        <mxCell id="C-vyLk0tnHw3VtMMgP7b-25" value="PK" style="shape=partialRectangle;overflow=hidden;connectable=0;fillColor=none;top=0;left=0;bottom=0;right=0;fontStyle=1;" parent="C-vyLk0tnHw3VtMMgP7b-24" vertex="1">
          <mxGeometry width="30" height="30" as="geometry">
            <mxRectangle width="30" height="30" as="alternateBounds" />
          </mxGeometry>
        </mxCell>
        <mxCell id="C-vyLk0tnHw3VtMMgP7b-26" value="studentId" style="shape=partialRectangle;overflow=hidden;connectable=0;fillColor=none;top=0;left=0;bottom=0;right=0;align=left;spacingLeft=6;fontStyle=5;" parent="C-vyLk0tnHw3VtMMgP7b-24" vertex="1">
          <mxGeometry x="30" width="220" height="30" as="geometry">
            <mxRectangle width="220" height="30" as="alternateBounds" />
          </mxGeometry>
        </mxCell>
        <mxCell id="C-vyLk0tnHw3VtMMgP7b-27" value="" style="shape=partialRectangle;collapsible=0;dropTarget=0;pointerEvents=0;fillColor=none;points=[[0,0.5],[1,0.5]];portConstraint=eastwest;top=0;left=0;right=0;bottom=0;" parent="C-vyLk0tnHw3VtMMgP7b-23" vertex="1">
          <mxGeometry y="60" width="250" height="80" as="geometry" />
        </mxCell>
        <mxCell id="C-vyLk0tnHw3VtMMgP7b-28" value="" style="shape=partialRectangle;overflow=hidden;connectable=0;fillColor=none;top=0;left=0;bottom=0;right=0;" parent="C-vyLk0tnHw3VtMMgP7b-27" vertex="1">
          <mxGeometry width="30" height="80" as="geometry">
            <mxRectangle width="30" height="80" as="alternateBounds" />
          </mxGeometry>
        </mxCell>
        <mxCell id="C-vyLk0tnHw3VtMMgP7b-29" value="student_name&#xa;&#xa;DOB&#xa;&#xa;gender" style="shape=partialRectangle;overflow=hidden;connectable=0;fillColor=none;top=0;left=0;bottom=0;right=0;align=left;spacingLeft=6;" parent="C-vyLk0tnHw3VtMMgP7b-27" vertex="1">
          <mxGeometry x="30" width="220" height="80" as="geometry">
            <mxRectangle width="220" height="80" as="alternateBounds" />
          </mxGeometry>
        </mxCell>
        <mxCell id="CudXulxGL8s81kNJGCqv-40" value="Attendance" style="shape=table;startSize=30;container=1;collapsible=1;childLayout=tableLayout;fixedRows=1;rowLines=0;fontStyle=1;align=center;resizeLast=1;html=1;" vertex="1" parent="1">
          <mxGeometry x="35" y="410" width="210" height="170" as="geometry" />
        </mxCell>
        <mxCell id="CudXulxGL8s81kNJGCqv-41" value="" style="shape=tableRow;horizontal=0;startSize=0;swimlaneHead=0;swimlaneBody=0;fillColor=none;collapsible=0;dropTarget=0;points=[[0,0.5],[1,0.5]];portConstraint=eastwest;top=0;left=0;right=0;bottom=1;" vertex="1" parent="CudXulxGL8s81kNJGCqv-40">
          <mxGeometry y="30" width="210" height="30" as="geometry" />
        </mxCell>
        <mxCell id="CudXulxGL8s81kNJGCqv-42" value="PK" style="shape=partialRectangle;connectable=0;fillColor=none;top=0;left=0;bottom=0;right=0;fontStyle=1;overflow=hidden;whiteSpace=wrap;html=1;" vertex="1" parent="CudXulxGL8s81kNJGCqv-41">
          <mxGeometry width="30" height="30" as="geometry">
            <mxRectangle width="30" height="30" as="alternateBounds" />
          </mxGeometry>
        </mxCell>
        <mxCell id="CudXulxGL8s81kNJGCqv-43" value="id" style="shape=partialRectangle;connectable=0;fillColor=none;top=0;left=0;bottom=0;right=0;align=left;spacingLeft=6;fontStyle=5;overflow=hidden;whiteSpace=wrap;html=1;" vertex="1" parent="CudXulxGL8s81kNJGCqv-41">
          <mxGeometry x="30" width="180" height="30" as="geometry">
            <mxRectangle width="180" height="30" as="alternateBounds" />
          </mxGeometry>
        </mxCell>
        <mxCell id="CudXulxGL8s81kNJGCqv-44" value="" style="shape=tableRow;horizontal=0;startSize=0;swimlaneHead=0;swimlaneBody=0;fillColor=none;collapsible=0;dropTarget=0;points=[[0,0.5],[1,0.5]];portConstraint=eastwest;top=0;left=0;right=0;bottom=0;" vertex="1" parent="CudXulxGL8s81kNJGCqv-40">
          <mxGeometry y="60" width="210" height="20" as="geometry" />
        </mxCell>
        <mxCell id="CudXulxGL8s81kNJGCqv-45" value="" style="shape=partialRectangle;connectable=0;fillColor=none;top=0;left=0;bottom=0;right=0;editable=1;overflow=hidden;whiteSpace=wrap;html=1;" vertex="1" parent="CudXulxGL8s81kNJGCqv-44">
          <mxGeometry width="30" height="20" as="geometry">
            <mxRectangle width="30" height="20" as="alternateBounds" />
          </mxGeometry>
        </mxCell>
        <mxCell id="CudXulxGL8s81kNJGCqv-46" value="studentId" style="shape=partialRectangle;connectable=0;fillColor=none;top=0;left=0;bottom=0;right=0;align=left;spacingLeft=6;overflow=hidden;whiteSpace=wrap;html=1;" vertex="1" parent="CudXulxGL8s81kNJGCqv-44">
          <mxGeometry x="30" width="180" height="20" as="geometry">
            <mxRectangle width="180" height="20" as="alternateBounds" />
          </mxGeometry>
        </mxCell>
        <mxCell id="CudXulxGL8s81kNJGCqv-47" value="" style="shape=tableRow;horizontal=0;startSize=0;swimlaneHead=0;swimlaneBody=0;fillColor=none;collapsible=0;dropTarget=0;points=[[0,0.5],[1,0.5]];portConstraint=eastwest;top=0;left=0;right=0;bottom=0;" vertex="1" parent="CudXulxGL8s81kNJGCqv-40">
          <mxGeometry y="80" width="210" height="30" as="geometry" />
        </mxCell>
        <mxCell id="CudXulxGL8s81kNJGCqv-48" value="" style="shape=partialRectangle;connectable=0;fillColor=none;top=0;left=0;bottom=0;right=0;editable=1;overflow=hidden;whiteSpace=wrap;html=1;" vertex="1" parent="CudXulxGL8s81kNJGCqv-47">
          <mxGeometry width="30" height="30" as="geometry">
            <mxRectangle width="30" height="30" as="alternateBounds" />
          </mxGeometry>
        </mxCell>
        <mxCell id="CudXulxGL8s81kNJGCqv-49" value="courseId" style="shape=partialRectangle;connectable=0;fillColor=none;top=0;left=0;bottom=0;right=0;align=left;spacingLeft=6;overflow=hidden;whiteSpace=wrap;html=1;" vertex="1" parent="CudXulxGL8s81kNJGCqv-47">
          <mxGeometry x="30" width="180" height="30" as="geometry">
            <mxRectangle width="180" height="30" as="alternateBounds" />
          </mxGeometry>
        </mxCell>
        <mxCell id="CudXulxGL8s81kNJGCqv-50" value="" style="shape=tableRow;horizontal=0;startSize=0;swimlaneHead=0;swimlaneBody=0;fillColor=none;collapsible=0;dropTarget=0;points=[[0,0.5],[1,0.5]];portConstraint=eastwest;top=0;left=0;right=0;bottom=0;" vertex="1" parent="CudXulxGL8s81kNJGCqv-40">
          <mxGeometry y="110" width="210" height="60" as="geometry" />
        </mxCell>
        <mxCell id="CudXulxGL8s81kNJGCqv-51" value="" style="shape=partialRectangle;connectable=0;fillColor=none;top=0;left=0;bottom=0;right=0;editable=1;overflow=hidden;whiteSpace=wrap;html=1;" vertex="1" parent="CudXulxGL8s81kNJGCqv-50">
          <mxGeometry width="30" height="60" as="geometry">
            <mxRectangle width="30" height="60" as="alternateBounds" />
          </mxGeometry>
        </mxCell>
        <mxCell id="CudXulxGL8s81kNJGCqv-52" value="adate&lt;br&gt;&lt;br&gt;pststaus&lt;span style=&quot;white-space: pre;&quot;&gt;&#x9;&lt;/span&gt;" style="shape=partialRectangle;connectable=0;fillColor=none;top=0;left=0;bottom=0;right=0;align=left;spacingLeft=6;overflow=hidden;whiteSpace=wrap;html=1;" vertex="1" parent="CudXulxGL8s81kNJGCqv-50">
          <mxGeometry x="30" width="180" height="60" as="geometry">
            <mxRectangle width="180" height="60" as="alternateBounds" />
          </mxGeometry>
        </mxCell>
        <mxCell id="CudXulxGL8s81kNJGCqv-55" value="Grades" style="shape=table;startSize=30;container=1;collapsible=1;childLayout=tableLayout;fixedRows=1;rowLines=0;fontStyle=1;align=center;resizeLast=1;html=1;" vertex="1" parent="1">
          <mxGeometry x="30" y="50" width="220" height="190" as="geometry" />
        </mxCell>
        <mxCell id="CudXulxGL8s81kNJGCqv-56" value="" style="shape=tableRow;horizontal=0;startSize=0;swimlaneHead=0;swimlaneBody=0;fillColor=none;collapsible=0;dropTarget=0;points=[[0,0.5],[1,0.5]];portConstraint=eastwest;top=0;left=0;right=0;bottom=1;" vertex="1" parent="CudXulxGL8s81kNJGCqv-55">
          <mxGeometry y="30" width="220" height="30" as="geometry" />
        </mxCell>
        <mxCell id="CudXulxGL8s81kNJGCqv-57" value="PK" style="shape=partialRectangle;connectable=0;fillColor=none;top=0;left=0;bottom=0;right=0;fontStyle=1;overflow=hidden;whiteSpace=wrap;html=1;" vertex="1" parent="CudXulxGL8s81kNJGCqv-56">
          <mxGeometry width="30" height="30" as="geometry">
            <mxRectangle width="30" height="30" as="alternateBounds" />
          </mxGeometry>
        </mxCell>
        <mxCell id="CudXulxGL8s81kNJGCqv-58" value="gradeId" style="shape=partialRectangle;connectable=0;fillColor=none;top=0;left=0;bottom=0;right=0;align=left;spacingLeft=6;fontStyle=5;overflow=hidden;whiteSpace=wrap;html=1;" vertex="1" parent="CudXulxGL8s81kNJGCqv-56">
          <mxGeometry x="30" width="190" height="30" as="geometry">
            <mxRectangle width="190" height="30" as="alternateBounds" />
          </mxGeometry>
        </mxCell>
        <mxCell id="CudXulxGL8s81kNJGCqv-59" value="" style="shape=tableRow;horizontal=0;startSize=0;swimlaneHead=0;swimlaneBody=0;fillColor=none;collapsible=0;dropTarget=0;points=[[0,0.5],[1,0.5]];portConstraint=eastwest;top=0;left=0;right=0;bottom=0;" vertex="1" parent="CudXulxGL8s81kNJGCqv-55">
          <mxGeometry y="60" width="220" height="20" as="geometry" />
        </mxCell>
        <mxCell id="CudXulxGL8s81kNJGCqv-60" value="" style="shape=partialRectangle;connectable=0;fillColor=none;top=0;left=0;bottom=0;right=0;editable=1;overflow=hidden;whiteSpace=wrap;html=1;" vertex="1" parent="CudXulxGL8s81kNJGCqv-59">
          <mxGeometry width="30" height="20" as="geometry">
            <mxRectangle width="30" height="20" as="alternateBounds" />
          </mxGeometry>
        </mxCell>
        <mxCell id="CudXulxGL8s81kNJGCqv-61" value="studentId" style="shape=partialRectangle;connectable=0;fillColor=none;top=0;left=0;bottom=0;right=0;align=left;spacingLeft=6;overflow=hidden;whiteSpace=wrap;html=1;" vertex="1" parent="CudXulxGL8s81kNJGCqv-59">
          <mxGeometry x="30" width="190" height="20" as="geometry">
            <mxRectangle width="190" height="20" as="alternateBounds" />
          </mxGeometry>
        </mxCell>
        <mxCell id="CudXulxGL8s81kNJGCqv-62" value="" style="shape=tableRow;horizontal=0;startSize=0;swimlaneHead=0;swimlaneBody=0;fillColor=none;collapsible=0;dropTarget=0;points=[[0,0.5],[1,0.5]];portConstraint=eastwest;top=0;left=0;right=0;bottom=0;" vertex="1" parent="CudXulxGL8s81kNJGCqv-55">
          <mxGeometry y="80" width="220" height="40" as="geometry" />
        </mxCell>
        <mxCell id="CudXulxGL8s81kNJGCqv-63" value="" style="shape=partialRectangle;connectable=0;fillColor=none;top=0;left=0;bottom=0;right=0;editable=1;overflow=hidden;whiteSpace=wrap;html=1;" vertex="1" parent="CudXulxGL8s81kNJGCqv-62">
          <mxGeometry width="30" height="40" as="geometry">
            <mxRectangle width="30" height="40" as="alternateBounds" />
          </mxGeometry>
        </mxCell>
        <mxCell id="CudXulxGL8s81kNJGCqv-64" value="courseId" style="shape=partialRectangle;connectable=0;fillColor=none;top=0;left=0;bottom=0;right=0;align=left;spacingLeft=6;overflow=hidden;whiteSpace=wrap;html=1;" vertex="1" parent="CudXulxGL8s81kNJGCqv-62">
          <mxGeometry x="30" width="190" height="40" as="geometry">
            <mxRectangle width="190" height="40" as="alternateBounds" />
          </mxGeometry>
        </mxCell>
        <mxCell id="CudXulxGL8s81kNJGCqv-65" value="" style="shape=tableRow;horizontal=0;startSize=0;swimlaneHead=0;swimlaneBody=0;fillColor=none;collapsible=0;dropTarget=0;points=[[0,0.5],[1,0.5]];portConstraint=eastwest;top=0;left=0;right=0;bottom=0;" vertex="1" parent="CudXulxGL8s81kNJGCqv-55">
          <mxGeometry y="120" width="220" height="70" as="geometry" />
        </mxCell>
        <mxCell id="CudXulxGL8s81kNJGCqv-66" value="" style="shape=partialRectangle;connectable=0;fillColor=none;top=0;left=0;bottom=0;right=0;editable=1;overflow=hidden;whiteSpace=wrap;html=1;" vertex="1" parent="CudXulxGL8s81kNJGCqv-65">
          <mxGeometry width="30" height="70" as="geometry">
            <mxRectangle width="30" height="70" as="alternateBounds" />
          </mxGeometry>
        </mxCell>
        <mxCell id="CudXulxGL8s81kNJGCqv-67" value="grade&lt;br&gt;&lt;br&gt;semester" style="shape=partialRectangle;connectable=0;fillColor=none;top=0;left=0;bottom=0;right=0;align=left;spacingLeft=6;overflow=hidden;whiteSpace=wrap;html=1;" vertex="1" parent="CudXulxGL8s81kNJGCqv-65">
          <mxGeometry x="30" width="190" height="70" as="geometry">
            <mxRectangle width="190" height="70" as="alternateBounds" />
          </mxGeometry>
        </mxCell>
        <mxCell id="CudXulxGL8s81kNJGCqv-70" value="" style="fontSize=12;html=1;endArrow=ERoneToMany;rounded=0;entryX=0.998;entryY=0.002;entryDx=0;entryDy=0;entryPerimeter=0;exitX=-0.003;exitY=0.041;exitDx=0;exitDy=0;exitPerimeter=0;" edge="1" parent="1" source="C-vyLk0tnHw3VtMMgP7b-6" target="CudXulxGL8s81kNJGCqv-62">
          <mxGeometry width="100" height="100" relative="1" as="geometry">
            <mxPoint x="360.0562719812426" y="130.0281359906213" as="sourcePoint" />
            <mxPoint x="470" y="200" as="targetPoint" />
            <Array as="points" />
          </mxGeometry>
        </mxCell>
        <mxCell id="CudXulxGL8s81kNJGCqv-71" value="" style="fontSize=12;html=1;endArrow=ERoneToMany;rounded=0;entryX=1.008;entryY=0.988;entryDx=0;entryDy=0;entryPerimeter=0;exitX=0;exitY=0;exitDx=0;exitDy=0;" edge="1" parent="1" source="C-vyLk0tnHw3VtMMgP7b-23" target="CudXulxGL8s81kNJGCqv-65">
          <mxGeometry width="100" height="100" relative="1" as="geometry">
            <mxPoint x="370" y="300" as="sourcePoint" />
            <mxPoint x="470" y="200" as="targetPoint" />
          </mxGeometry>
        </mxCell>
        <mxCell id="CudXulxGL8s81kNJGCqv-72" value="" style="fontSize=12;html=1;endArrow=ERoneToMany;rounded=0;exitX=0.998;exitY=1.013;exitDx=0;exitDy=0;exitPerimeter=0;entryX=0;entryY=0;entryDx=0;entryDy=0;" edge="1" parent="1" source="C-vyLk0tnHw3VtMMgP7b-27" target="C-vyLk0tnHw3VtMMgP7b-13">
          <mxGeometry width="100" height="100" relative="1" as="geometry">
            <mxPoint x="370" y="390" as="sourcePoint" />
            <mxPoint x="590" y="430" as="targetPoint" />
            <Array as="points" />
          </mxGeometry>
        </mxCell>
        <mxCell id="CudXulxGL8s81kNJGCqv-73" value="" style="fontSize=12;html=1;endArrow=ERoneToMany;rounded=0;entryX=1;entryY=0;entryDx=0;entryDy=0;exitX=0;exitY=1.003;exitDx=0;exitDy=0;exitPerimeter=0;" edge="1" parent="1" source="C-vyLk0tnHw3VtMMgP7b-27" target="CudXulxGL8s81kNJGCqv-40">
          <mxGeometry width="100" height="100" relative="1" as="geometry">
            <mxPoint x="370" y="390" as="sourcePoint" />
            <mxPoint x="470" y="290" as="targetPoint" />
            <Array as="points">
              <mxPoint x="280" y="400" />
            </Array>
          </mxGeometry>
        </mxCell>
        <mxCell id="CudXulxGL8s81kNJGCqv-74" value="" style="fontSize=12;html=1;endArrow=ERoneToMany;startArrow=ERoneToMany;rounded=0;" edge="1" parent="1">
          <mxGeometry width="100" height="100" relative="1" as="geometry">
            <mxPoint x="560" y="240" as="sourcePoint" />
            <mxPoint x="590" y="210" as="targetPoint" />
          </mxGeometry>
        </mxCell>
        <mxCell id="CudXulxGL8s81kNJGCqv-75" value="" style="fontSize=12;html=1;endArrow=ERmany;rounded=0;entryX=0.5;entryY=0;entryDx=0;entryDy=0;exitX=0.495;exitY=1.002;exitDx=0;exitDy=0;exitPerimeter=0;" edge="1" parent="1" source="C-vyLk0tnHw3VtMMgP7b-9" target="C-vyLk0tnHw3VtMMgP7b-13">
          <mxGeometry width="100" height="100" relative="1" as="geometry">
            <mxPoint x="650" y="370" as="sourcePoint" />
            <mxPoint x="750" y="270" as="targetPoint" />
          </mxGeometry>
        </mxCell>
        <mxCell id="CudXulxGL8s81kNJGCqv-77" value="FK1" style="text;html=1;strokeColor=none;fillColor=none;align=center;verticalAlign=middle;whiteSpace=wrap;rounded=0;" vertex="1" parent="1">
          <mxGeometry x="30" y="470" width="40" height="30" as="geometry" />
        </mxCell>
        <mxCell id="CudXulxGL8s81kNJGCqv-78" value="FK2" style="text;html=1;strokeColor=none;fillColor=none;align=center;verticalAlign=middle;whiteSpace=wrap;rounded=0;" vertex="1" parent="1">
          <mxGeometry x="40" y="500" width="20" height="20" as="geometry" />
        </mxCell>
        <mxCell id="CudXulxGL8s81kNJGCqv-79" value="FK2" style="text;html=1;strokeColor=none;fillColor=none;align=center;verticalAlign=middle;whiteSpace=wrap;rounded=0;" vertex="1" parent="1">
          <mxGeometry x="590" y="520" width="30" height="30" as="geometry" />
        </mxCell>
        <mxCell id="CudXulxGL8s81kNJGCqv-80" value="FK1" style="text;html=1;strokeColor=none;fillColor=none;align=center;verticalAlign=middle;whiteSpace=wrap;rounded=0;" vertex="1" parent="1">
          <mxGeometry x="30" y="110" width="30" height="30" as="geometry" />
        </mxCell>
        <mxCell id="CudXulxGL8s81kNJGCqv-81" value="FK2" style="text;html=1;strokeColor=none;fillColor=none;align=center;verticalAlign=middle;whiteSpace=wrap;rounded=0;" vertex="1" parent="1">
          <mxGeometry x="30" y="140" width="30" height="30" as="geometry" />
        </mxCell>
        <mxCell id="CudXulxGL8s81kNJGCqv-86" value="Course" style="shape=table;startSize=30;container=1;collapsible=1;childLayout=tableLayout;fixedRows=1;rowLines=0;fontStyle=1;align=center;resizeLast=1;" vertex="1" parent="1">
          <mxGeometry x="590" y="70" width="250" height="140" as="geometry" />
        </mxCell>
        <mxCell id="CudXulxGL8s81kNJGCqv-87" value="" style="shape=partialRectangle;collapsible=0;dropTarget=0;pointerEvents=0;fillColor=none;points=[[0,0.5],[1,0.5]];portConstraint=eastwest;top=0;left=0;right=0;bottom=1;" vertex="1" parent="CudXulxGL8s81kNJGCqv-86">
          <mxGeometry y="30" width="250" height="30" as="geometry" />
        </mxCell>
        <mxCell id="CudXulxGL8s81kNJGCqv-88" value="PK" style="shape=partialRectangle;overflow=hidden;connectable=0;fillColor=none;top=0;left=0;bottom=0;right=0;fontStyle=1;" vertex="1" parent="CudXulxGL8s81kNJGCqv-87">
          <mxGeometry width="30" height="30" as="geometry">
            <mxRectangle width="30" height="30" as="alternateBounds" />
          </mxGeometry>
        </mxCell>
        <mxCell id="CudXulxGL8s81kNJGCqv-89" value="courseId" style="shape=partialRectangle;overflow=hidden;connectable=0;fillColor=none;top=0;left=0;bottom=0;right=0;align=left;spacingLeft=6;fontStyle=5;" vertex="1" parent="CudXulxGL8s81kNJGCqv-87">
          <mxGeometry x="30" width="220" height="30" as="geometry">
            <mxRectangle width="220" height="30" as="alternateBounds" />
          </mxGeometry>
        </mxCell>
        <mxCell id="CudXulxGL8s81kNJGCqv-90" value="" style="shape=partialRectangle;collapsible=0;dropTarget=0;pointerEvents=0;fillColor=none;points=[[0,0.5],[1,0.5]];portConstraint=eastwest;top=0;left=0;right=0;bottom=0;" vertex="1" parent="CudXulxGL8s81kNJGCqv-86">
          <mxGeometry y="60" width="250" height="20" as="geometry" />
        </mxCell>
        <mxCell id="CudXulxGL8s81kNJGCqv-91" value="" style="shape=partialRectangle;overflow=hidden;connectable=0;fillColor=none;top=0;left=0;bottom=0;right=0;" vertex="1" parent="CudXulxGL8s81kNJGCqv-90">
          <mxGeometry width="30" height="20" as="geometry">
            <mxRectangle width="30" height="20" as="alternateBounds" />
          </mxGeometry>
        </mxCell>
        <mxCell id="CudXulxGL8s81kNJGCqv-92" value="sub" style="shape=partialRectangle;overflow=hidden;connectable=0;fillColor=none;top=0;left=0;bottom=0;right=0;align=left;spacingLeft=6;" vertex="1" parent="CudXulxGL8s81kNJGCqv-90">
          <mxGeometry x="30" width="220" height="20" as="geometry">
            <mxRectangle width="220" height="20" as="alternateBounds" />
          </mxGeometry>
        </mxCell>
        <mxCell id="CudXulxGL8s81kNJGCqv-93" value="" style="shape=partialRectangle;collapsible=0;dropTarget=0;pointerEvents=0;fillColor=none;points=[[0,0.5],[1,0.5]];portConstraint=eastwest;top=0;left=0;right=0;bottom=0;" vertex="1" parent="CudXulxGL8s81kNJGCqv-86">
          <mxGeometry y="80" width="250" height="60" as="geometry" />
        </mxCell>
        <mxCell id="CudXulxGL8s81kNJGCqv-94" value="" style="shape=partialRectangle;overflow=hidden;connectable=0;fillColor=none;top=0;left=0;bottom=0;right=0;" vertex="1" parent="CudXulxGL8s81kNJGCqv-93">
          <mxGeometry width="30" height="60" as="geometry">
            <mxRectangle width="30" height="60" as="alternateBounds" />
          </mxGeometry>
        </mxCell>
        <mxCell id="CudXulxGL8s81kNJGCqv-95" value="credit_hrs&#xa;&#xa;dept" style="shape=partialRectangle;overflow=hidden;connectable=0;fillColor=none;top=0;left=0;bottom=0;right=0;align=left;spacingLeft=6;" vertex="1" parent="CudXulxGL8s81kNJGCqv-93">
          <mxGeometry x="30" width="220" height="60" as="geometry">
            <mxRectangle width="220" height="60" as="alternateBounds" />
          </mxGeometry>
        </mxCell>
        <mxCell id="CudXulxGL8s81kNJGCqv-96" value="Enrollment" style="shape=table;startSize=30;container=1;collapsible=1;childLayout=tableLayout;fixedRows=1;rowLines=0;fontStyle=1;align=center;resizeLast=1;" vertex="1" parent="1">
          <mxGeometry x="590" y="430" width="250" height="150" as="geometry" />
        </mxCell>
        <mxCell id="CudXulxGL8s81kNJGCqv-97" value="" style="shape=partialRectangle;collapsible=0;dropTarget=0;pointerEvents=0;fillColor=none;points=[[0,0.5],[1,0.5]];portConstraint=eastwest;top=0;left=0;right=0;bottom=1;" vertex="1" parent="CudXulxGL8s81kNJGCqv-96">
          <mxGeometry y="30" width="250" height="30" as="geometry" />
        </mxCell>
        <mxCell id="CudXulxGL8s81kNJGCqv-98" value="PK" style="shape=partialRectangle;overflow=hidden;connectable=0;fillColor=none;top=0;left=0;bottom=0;right=0;fontStyle=1;" vertex="1" parent="CudXulxGL8s81kNJGCqv-97">
          <mxGeometry width="30" height="30" as="geometry">
            <mxRectangle width="30" height="30" as="alternateBounds" />
          </mxGeometry>
        </mxCell>
        <mxCell id="CudXulxGL8s81kNJGCqv-99" value="eId" style="shape=partialRectangle;overflow=hidden;connectable=0;fillColor=none;top=0;left=0;bottom=0;right=0;align=left;spacingLeft=6;fontStyle=5;" vertex="1" parent="CudXulxGL8s81kNJGCqv-97">
          <mxGeometry x="30" width="220" height="30" as="geometry">
            <mxRectangle width="220" height="30" as="alternateBounds" />
          </mxGeometry>
        </mxCell>
        <mxCell id="CudXulxGL8s81kNJGCqv-100" value="" style="shape=partialRectangle;collapsible=0;dropTarget=0;pointerEvents=0;fillColor=none;points=[[0,0.5],[1,0.5]];portConstraint=eastwest;top=0;left=0;right=0;bottom=0;" vertex="1" parent="CudXulxGL8s81kNJGCqv-96">
          <mxGeometry y="60" width="250" height="30" as="geometry" />
        </mxCell>
        <mxCell id="CudXulxGL8s81kNJGCqv-101" value="FK1" style="shape=partialRectangle;overflow=hidden;connectable=0;fillColor=none;top=0;left=0;bottom=0;right=0;" vertex="1" parent="CudXulxGL8s81kNJGCqv-100">
          <mxGeometry width="30" height="30" as="geometry">
            <mxRectangle width="30" height="30" as="alternateBounds" />
          </mxGeometry>
        </mxCell>
        <mxCell id="CudXulxGL8s81kNJGCqv-102" value="studentId" style="shape=partialRectangle;overflow=hidden;connectable=0;fillColor=none;top=0;left=0;bottom=0;right=0;align=left;spacingLeft=6;" vertex="1" parent="CudXulxGL8s81kNJGCqv-100">
          <mxGeometry x="30" width="220" height="30" as="geometry">
            <mxRectangle width="220" height="30" as="alternateBounds" />
          </mxGeometry>
        </mxCell>
        <mxCell id="CudXulxGL8s81kNJGCqv-103" value="" style="shape=partialRectangle;collapsible=0;dropTarget=0;pointerEvents=0;fillColor=none;points=[[0,0.5],[1,0.5]];portConstraint=eastwest;top=0;left=0;right=0;bottom=0;" vertex="1" parent="CudXulxGL8s81kNJGCqv-96">
          <mxGeometry y="90" width="250" height="60" as="geometry" />
        </mxCell>
        <mxCell id="CudXulxGL8s81kNJGCqv-104" value="" style="shape=partialRectangle;overflow=hidden;connectable=0;fillColor=none;top=0;left=0;bottom=0;right=0;" vertex="1" parent="CudXulxGL8s81kNJGCqv-103">
          <mxGeometry width="30" height="60" as="geometry">
            <mxRectangle width="30" height="60" as="alternateBounds" />
          </mxGeometry>
        </mxCell>
        <mxCell id="CudXulxGL8s81kNJGCqv-105" value="courseId&#xa;&#xa;semester" style="shape=partialRectangle;overflow=hidden;connectable=0;fillColor=none;top=0;left=0;bottom=0;right=0;align=left;spacingLeft=6;" vertex="1" parent="CudXulxGL8s81kNJGCqv-103">
          <mxGeometry x="30" width="220" height="60" as="geometry">
            <mxRectangle width="220" height="60" as="alternateBounds" />
          </mxGeometry>
        </mxCell>
        <mxCell id="CudXulxGL8s81kNJGCqv-106" value="Student" style="shape=table;startSize=30;container=1;collapsible=1;childLayout=tableLayout;fixedRows=1;rowLines=0;fontStyle=1;align=center;resizeLast=1;" vertex="1" parent="1">
          <mxGeometry x="310" y="240" width="250" height="140" as="geometry">
            <mxRectangle x="120" y="120" width="90" height="30" as="alternateBounds" />
          </mxGeometry>
        </mxCell>
        <mxCell id="CudXulxGL8s81kNJGCqv-107" value="" style="shape=partialRectangle;collapsible=0;dropTarget=0;pointerEvents=0;fillColor=none;points=[[0,0.5],[1,0.5]];portConstraint=eastwest;top=0;left=0;right=0;bottom=1;" vertex="1" parent="CudXulxGL8s81kNJGCqv-106">
          <mxGeometry y="30" width="250" height="30" as="geometry" />
        </mxCell>
        <mxCell id="CudXulxGL8s81kNJGCqv-108" value="PK" style="shape=partialRectangle;overflow=hidden;connectable=0;fillColor=none;top=0;left=0;bottom=0;right=0;fontStyle=1;" vertex="1" parent="CudXulxGL8s81kNJGCqv-107">
          <mxGeometry width="30" height="30" as="geometry">
            <mxRectangle width="30" height="30" as="alternateBounds" />
          </mxGeometry>
        </mxCell>
        <mxCell id="CudXulxGL8s81kNJGCqv-109" value="studentId" style="shape=partialRectangle;overflow=hidden;connectable=0;fillColor=none;top=0;left=0;bottom=0;right=0;align=left;spacingLeft=6;fontStyle=5;" vertex="1" parent="CudXulxGL8s81kNJGCqv-107">
          <mxGeometry x="30" width="220" height="30" as="geometry">
            <mxRectangle width="220" height="30" as="alternateBounds" />
          </mxGeometry>
        </mxCell>
        <mxCell id="CudXulxGL8s81kNJGCqv-110" value="" style="shape=partialRectangle;collapsible=0;dropTarget=0;pointerEvents=0;fillColor=none;points=[[0,0.5],[1,0.5]];portConstraint=eastwest;top=0;left=0;right=0;bottom=0;" vertex="1" parent="CudXulxGL8s81kNJGCqv-106">
          <mxGeometry y="60" width="250" height="80" as="geometry" />
        </mxCell>
        <mxCell id="CudXulxGL8s81kNJGCqv-111" value="" style="shape=partialRectangle;overflow=hidden;connectable=0;fillColor=none;top=0;left=0;bottom=0;right=0;" vertex="1" parent="CudXulxGL8s81kNJGCqv-110">
          <mxGeometry width="30" height="80" as="geometry">
            <mxRectangle width="30" height="80" as="alternateBounds" />
          </mxGeometry>
        </mxCell>
        <mxCell id="CudXulxGL8s81kNJGCqv-112" value="student_name&#xa;&#xa;DOB&#xa;&#xa;gender" style="shape=partialRectangle;overflow=hidden;connectable=0;fillColor=none;top=0;left=0;bottom=0;right=0;align=left;spacingLeft=6;" vertex="1" parent="CudXulxGL8s81kNJGCqv-110">
          <mxGeometry x="30" width="220" height="80" as="geometry">
            <mxRectangle width="220" height="80" as="alternateBounds" />
          </mxGeometry>
        </mxCell>
        <mxCell id="CudXulxGL8s81kNJGCqv-113" value="Attendance" style="shape=table;startSize=30;container=1;collapsible=1;childLayout=tableLayout;fixedRows=1;rowLines=0;fontStyle=1;align=center;resizeLast=1;html=1;" vertex="1" parent="1">
          <mxGeometry x="35" y="410" width="210" height="170" as="geometry" />
        </mxCell>
        <mxCell id="CudXulxGL8s81kNJGCqv-114" value="" style="shape=tableRow;horizontal=0;startSize=0;swimlaneHead=0;swimlaneBody=0;fillColor=none;collapsible=0;dropTarget=0;points=[[0,0.5],[1,0.5]];portConstraint=eastwest;top=0;left=0;right=0;bottom=1;" vertex="1" parent="CudXulxGL8s81kNJGCqv-113">
          <mxGeometry y="30" width="210" height="30" as="geometry" />
        </mxCell>
        <mxCell id="CudXulxGL8s81kNJGCqv-115" value="PK" style="shape=partialRectangle;connectable=0;fillColor=none;top=0;left=0;bottom=0;right=0;fontStyle=1;overflow=hidden;whiteSpace=wrap;html=1;" vertex="1" parent="CudXulxGL8s81kNJGCqv-114">
          <mxGeometry width="30" height="30" as="geometry">
            <mxRectangle width="30" height="30" as="alternateBounds" />
          </mxGeometry>
        </mxCell>
        <mxCell id="CudXulxGL8s81kNJGCqv-116" value="id" style="shape=partialRectangle;connectable=0;fillColor=none;top=0;left=0;bottom=0;right=0;align=left;spacingLeft=6;fontStyle=5;overflow=hidden;whiteSpace=wrap;html=1;" vertex="1" parent="CudXulxGL8s81kNJGCqv-114">
          <mxGeometry x="30" width="180" height="30" as="geometry">
            <mxRectangle width="180" height="30" as="alternateBounds" />
          </mxGeometry>
        </mxCell>
        <mxCell id="CudXulxGL8s81kNJGCqv-117" value="" style="shape=tableRow;horizontal=0;startSize=0;swimlaneHead=0;swimlaneBody=0;fillColor=none;collapsible=0;dropTarget=0;points=[[0,0.5],[1,0.5]];portConstraint=eastwest;top=0;left=0;right=0;bottom=0;" vertex="1" parent="CudXulxGL8s81kNJGCqv-113">
          <mxGeometry y="60" width="210" height="20" as="geometry" />
        </mxCell>
        <mxCell id="CudXulxGL8s81kNJGCqv-118" value="" style="shape=partialRectangle;connectable=0;fillColor=none;top=0;left=0;bottom=0;right=0;editable=1;overflow=hidden;whiteSpace=wrap;html=1;" vertex="1" parent="CudXulxGL8s81kNJGCqv-117">
          <mxGeometry width="30" height="20" as="geometry">
            <mxRectangle width="30" height="20" as="alternateBounds" />
          </mxGeometry>
        </mxCell>
        <mxCell id="CudXulxGL8s81kNJGCqv-119" value="studentId" style="shape=partialRectangle;connectable=0;fillColor=none;top=0;left=0;bottom=0;right=0;align=left;spacingLeft=6;overflow=hidden;whiteSpace=wrap;html=1;" vertex="1" parent="CudXulxGL8s81kNJGCqv-117">
          <mxGeometry x="30" width="180" height="20" as="geometry">
            <mxRectangle width="180" height="20" as="alternateBounds" />
          </mxGeometry>
        </mxCell>
        <mxCell id="CudXulxGL8s81kNJGCqv-120" value="" style="shape=tableRow;horizontal=0;startSize=0;swimlaneHead=0;swimlaneBody=0;fillColor=none;collapsible=0;dropTarget=0;points=[[0,0.5],[1,0.5]];portConstraint=eastwest;top=0;left=0;right=0;bottom=0;" vertex="1" parent="CudXulxGL8s81kNJGCqv-113">
          <mxGeometry y="80" width="210" height="30" as="geometry" />
        </mxCell>
        <mxCell id="CudXulxGL8s81kNJGCqv-121" value="" style="shape=partialRectangle;connectable=0;fillColor=none;top=0;left=0;bottom=0;right=0;editable=1;overflow=hidden;whiteSpace=wrap;html=1;" vertex="1" parent="CudXulxGL8s81kNJGCqv-120">
          <mxGeometry width="30" height="30" as="geometry">
            <mxRectangle width="30" height="30" as="alternateBounds" />
          </mxGeometry>
        </mxCell>
        <mxCell id="CudXulxGL8s81kNJGCqv-122" value="courseId" style="shape=partialRectangle;connectable=0;fillColor=none;top=0;left=0;bottom=0;right=0;align=left;spacingLeft=6;overflow=hidden;whiteSpace=wrap;html=1;" vertex="1" parent="CudXulxGL8s81kNJGCqv-120">
          <mxGeometry x="30" width="180" height="30" as="geometry">
            <mxRectangle width="180" height="30" as="alternateBounds" />
          </mxGeometry>
        </mxCell>
        <mxCell id="CudXulxGL8s81kNJGCqv-123" value="" style="shape=tableRow;horizontal=0;startSize=0;swimlaneHead=0;swimlaneBody=0;fillColor=none;collapsible=0;dropTarget=0;points=[[0,0.5],[1,0.5]];portConstraint=eastwest;top=0;left=0;right=0;bottom=0;" vertex="1" parent="CudXulxGL8s81kNJGCqv-113">
          <mxGeometry y="110" width="210" height="60" as="geometry" />
        </mxCell>
        <mxCell id="CudXulxGL8s81kNJGCqv-124" value="" style="shape=partialRectangle;connectable=0;fillColor=none;top=0;left=0;bottom=0;right=0;editable=1;overflow=hidden;whiteSpace=wrap;html=1;" vertex="1" parent="CudXulxGL8s81kNJGCqv-123">
          <mxGeometry width="30" height="60" as="geometry">
            <mxRectangle width="30" height="60" as="alternateBounds" />
          </mxGeometry>
        </mxCell>
        <mxCell id="CudXulxGL8s81kNJGCqv-125" value="adate&lt;br&gt;&lt;br&gt;pststaus&lt;span style=&quot;white-space: pre;&quot;&gt;&#x9;&lt;/span&gt;" style="shape=partialRectangle;connectable=0;fillColor=none;top=0;left=0;bottom=0;right=0;align=left;spacingLeft=6;overflow=hidden;whiteSpace=wrap;html=1;" vertex="1" parent="CudXulxGL8s81kNJGCqv-123">
          <mxGeometry x="30" width="180" height="60" as="geometry">
            <mxRectangle width="180" height="60" as="alternateBounds" />
          </mxGeometry>
        </mxCell>
        <mxCell id="CudXulxGL8s81kNJGCqv-126" value="Grades" style="shape=table;startSize=30;container=1;collapsible=1;childLayout=tableLayout;fixedRows=1;rowLines=0;fontStyle=1;align=center;resizeLast=1;html=1;" vertex="1" parent="1">
          <mxGeometry x="30" y="50" width="220" height="190" as="geometry" />
        </mxCell>
        <mxCell id="CudXulxGL8s81kNJGCqv-127" value="" style="shape=tableRow;horizontal=0;startSize=0;swimlaneHead=0;swimlaneBody=0;fillColor=none;collapsible=0;dropTarget=0;points=[[0,0.5],[1,0.5]];portConstraint=eastwest;top=0;left=0;right=0;bottom=1;" vertex="1" parent="CudXulxGL8s81kNJGCqv-126">
          <mxGeometry y="30" width="220" height="30" as="geometry" />
        </mxCell>
        <mxCell id="CudXulxGL8s81kNJGCqv-128" value="PK" style="shape=partialRectangle;connectable=0;fillColor=none;top=0;left=0;bottom=0;right=0;fontStyle=1;overflow=hidden;whiteSpace=wrap;html=1;" vertex="1" parent="CudXulxGL8s81kNJGCqv-127">
          <mxGeometry width="30" height="30" as="geometry">
            <mxRectangle width="30" height="30" as="alternateBounds" />
          </mxGeometry>
        </mxCell>
        <mxCell id="CudXulxGL8s81kNJGCqv-129" value="gradeId" style="shape=partialRectangle;connectable=0;fillColor=none;top=0;left=0;bottom=0;right=0;align=left;spacingLeft=6;fontStyle=5;overflow=hidden;whiteSpace=wrap;html=1;" vertex="1" parent="CudXulxGL8s81kNJGCqv-127">
          <mxGeometry x="30" width="190" height="30" as="geometry">
            <mxRectangle width="190" height="30" as="alternateBounds" />
          </mxGeometry>
        </mxCell>
        <mxCell id="CudXulxGL8s81kNJGCqv-130" value="" style="shape=tableRow;horizontal=0;startSize=0;swimlaneHead=0;swimlaneBody=0;fillColor=none;collapsible=0;dropTarget=0;points=[[0,0.5],[1,0.5]];portConstraint=eastwest;top=0;left=0;right=0;bottom=0;" vertex="1" parent="CudXulxGL8s81kNJGCqv-126">
          <mxGeometry y="60" width="220" height="20" as="geometry" />
        </mxCell>
        <mxCell id="CudXulxGL8s81kNJGCqv-131" value="" style="shape=partialRectangle;connectable=0;fillColor=none;top=0;left=0;bottom=0;right=0;editable=1;overflow=hidden;whiteSpace=wrap;html=1;" vertex="1" parent="CudXulxGL8s81kNJGCqv-130">
          <mxGeometry width="30" height="20" as="geometry">
            <mxRectangle width="30" height="20" as="alternateBounds" />
          </mxGeometry>
        </mxCell>
        <mxCell id="CudXulxGL8s81kNJGCqv-132" value="studentId" style="shape=partialRectangle;connectable=0;fillColor=none;top=0;left=0;bottom=0;right=0;align=left;spacingLeft=6;overflow=hidden;whiteSpace=wrap;html=1;" vertex="1" parent="CudXulxGL8s81kNJGCqv-130">
          <mxGeometry x="30" width="190" height="20" as="geometry">
            <mxRectangle width="190" height="20" as="alternateBounds" />
          </mxGeometry>
        </mxCell>
        <mxCell id="CudXulxGL8s81kNJGCqv-133" value="" style="shape=tableRow;horizontal=0;startSize=0;swimlaneHead=0;swimlaneBody=0;fillColor=none;collapsible=0;dropTarget=0;points=[[0,0.5],[1,0.5]];portConstraint=eastwest;top=0;left=0;right=0;bottom=0;" vertex="1" parent="CudXulxGL8s81kNJGCqv-126">
          <mxGeometry y="80" width="220" height="40" as="geometry" />
        </mxCell>
        <mxCell id="CudXulxGL8s81kNJGCqv-134" value="" style="shape=partialRectangle;connectable=0;fillColor=none;top=0;left=0;bottom=0;right=0;editable=1;overflow=hidden;whiteSpace=wrap;html=1;" vertex="1" parent="CudXulxGL8s81kNJGCqv-133">
          <mxGeometry width="30" height="40" as="geometry">
            <mxRectangle width="30" height="40" as="alternateBounds" />
          </mxGeometry>
        </mxCell>
        <mxCell id="CudXulxGL8s81kNJGCqv-135" value="courseId" style="shape=partialRectangle;connectable=0;fillColor=none;top=0;left=0;bottom=0;right=0;align=left;spacingLeft=6;overflow=hidden;whiteSpace=wrap;html=1;" vertex="1" parent="CudXulxGL8s81kNJGCqv-133">
          <mxGeometry x="30" width="190" height="40" as="geometry">
            <mxRectangle width="190" height="40" as="alternateBounds" />
          </mxGeometry>
        </mxCell>
        <mxCell id="CudXulxGL8s81kNJGCqv-136" value="" style="shape=tableRow;horizontal=0;startSize=0;swimlaneHead=0;swimlaneBody=0;fillColor=none;collapsible=0;dropTarget=0;points=[[0,0.5],[1,0.5]];portConstraint=eastwest;top=0;left=0;right=0;bottom=0;" vertex="1" parent="CudXulxGL8s81kNJGCqv-126">
          <mxGeometry y="120" width="220" height="70" as="geometry" />
        </mxCell>
        <mxCell id="CudXulxGL8s81kNJGCqv-137" value="" style="shape=partialRectangle;connectable=0;fillColor=none;top=0;left=0;bottom=0;right=0;editable=1;overflow=hidden;whiteSpace=wrap;html=1;" vertex="1" parent="CudXulxGL8s81kNJGCqv-136">
          <mxGeometry width="30" height="70" as="geometry">
            <mxRectangle width="30" height="70" as="alternateBounds" />
          </mxGeometry>
        </mxCell>
        <mxCell id="CudXulxGL8s81kNJGCqv-138" value="grade&lt;br&gt;&lt;br&gt;semester" style="shape=partialRectangle;connectable=0;fillColor=none;top=0;left=0;bottom=0;right=0;align=left;spacingLeft=6;overflow=hidden;whiteSpace=wrap;html=1;" vertex="1" parent="CudXulxGL8s81kNJGCqv-136">
          <mxGeometry x="30" width="190" height="70" as="geometry">
            <mxRectangle width="190" height="70" as="alternateBounds" />
          </mxGeometry>
        </mxCell>
        <mxCell id="CudXulxGL8s81kNJGCqv-139" value="" style="fontSize=12;html=1;endArrow=ERoneToMany;rounded=0;entryX=0.998;entryY=0.002;entryDx=0;entryDy=0;entryPerimeter=0;exitX=-0.003;exitY=0.041;exitDx=0;exitDy=0;exitPerimeter=0;" edge="1" parent="1" source="CudXulxGL8s81kNJGCqv-90" target="CudXulxGL8s81kNJGCqv-133">
          <mxGeometry width="100" height="100" relative="1" as="geometry">
            <mxPoint x="360.0562719812426" y="130.0281359906213" as="sourcePoint" />
            <mxPoint x="470" y="200" as="targetPoint" />
            <Array as="points" />
          </mxGeometry>
        </mxCell>
        <mxCell id="CudXulxGL8s81kNJGCqv-140" value="" style="fontSize=12;html=1;endArrow=ERoneToMany;rounded=0;entryX=1.008;entryY=0.988;entryDx=0;entryDy=0;entryPerimeter=0;exitX=0;exitY=0;exitDx=0;exitDy=0;" edge="1" parent="1" source="CudXulxGL8s81kNJGCqv-106" target="CudXulxGL8s81kNJGCqv-136">
          <mxGeometry width="100" height="100" relative="1" as="geometry">
            <mxPoint x="370" y="300" as="sourcePoint" />
            <mxPoint x="470" y="200" as="targetPoint" />
          </mxGeometry>
        </mxCell>
        <mxCell id="CudXulxGL8s81kNJGCqv-141" value="" style="fontSize=12;html=1;endArrow=ERoneToMany;rounded=0;exitX=0.998;exitY=1.013;exitDx=0;exitDy=0;exitPerimeter=0;entryX=0;entryY=0;entryDx=0;entryDy=0;" edge="1" parent="1" source="CudXulxGL8s81kNJGCqv-110" target="CudXulxGL8s81kNJGCqv-96">
          <mxGeometry width="100" height="100" relative="1" as="geometry">
            <mxPoint x="370" y="390" as="sourcePoint" />
            <mxPoint x="590" y="430" as="targetPoint" />
            <Array as="points" />
          </mxGeometry>
        </mxCell>
        <mxCell id="CudXulxGL8s81kNJGCqv-142" value="" style="fontSize=12;html=1;endArrow=ERoneToMany;rounded=0;entryX=1;entryY=0;entryDx=0;entryDy=0;exitX=0;exitY=1.003;exitDx=0;exitDy=0;exitPerimeter=0;" edge="1" parent="1" source="CudXulxGL8s81kNJGCqv-110" target="CudXulxGL8s81kNJGCqv-113">
          <mxGeometry width="100" height="100" relative="1" as="geometry">
            <mxPoint x="370" y="390" as="sourcePoint" />
            <mxPoint x="470" y="290" as="targetPoint" />
            <Array as="points">
              <mxPoint x="280" y="400" />
            </Array>
          </mxGeometry>
        </mxCell>
        <mxCell id="CudXulxGL8s81kNJGCqv-143" value="" style="fontSize=12;html=1;endArrow=ERoneToMany;startArrow=ERoneToMany;rounded=0;" edge="1" parent="1">
          <mxGeometry width="100" height="100" relative="1" as="geometry">
            <mxPoint x="560" y="240" as="sourcePoint" />
            <mxPoint x="590" y="210" as="targetPoint" />
          </mxGeometry>
        </mxCell>
        <mxCell id="CudXulxGL8s81kNJGCqv-144" value="" style="fontSize=12;html=1;endArrow=ERmany;rounded=0;entryX=0.5;entryY=0;entryDx=0;entryDy=0;exitX=0.495;exitY=1.002;exitDx=0;exitDy=0;exitPerimeter=0;" edge="1" parent="1" source="CudXulxGL8s81kNJGCqv-93" target="CudXulxGL8s81kNJGCqv-96">
          <mxGeometry width="100" height="100" relative="1" as="geometry">
            <mxPoint x="650" y="370" as="sourcePoint" />
            <mxPoint x="750" y="270" as="targetPoint" />
          </mxGeometry>
        </mxCell>
        <mxCell id="CudXulxGL8s81kNJGCqv-145" value="FK1" style="text;html=1;strokeColor=none;fillColor=none;align=center;verticalAlign=middle;whiteSpace=wrap;rounded=0;" vertex="1" parent="1">
          <mxGeometry x="30" y="470" width="40" height="30" as="geometry" />
        </mxCell>
        <mxCell id="CudXulxGL8s81kNJGCqv-146" value="FK2" style="text;html=1;strokeColor=none;fillColor=none;align=center;verticalAlign=middle;whiteSpace=wrap;rounded=0;" vertex="1" parent="1">
          <mxGeometry x="40" y="500" width="20" height="20" as="geometry" />
        </mxCell>
        <mxCell id="CudXulxGL8s81kNJGCqv-147" value="FK2" style="text;html=1;strokeColor=none;fillColor=none;align=center;verticalAlign=middle;whiteSpace=wrap;rounded=0;" vertex="1" parent="1">
          <mxGeometry x="590" y="520" width="30" height="30" as="geometry" />
        </mxCell>
        <mxCell id="CudXulxGL8s81kNJGCqv-148" value="FK1" style="text;html=1;strokeColor=none;fillColor=none;align=center;verticalAlign=middle;whiteSpace=wrap;rounded=0;" vertex="1" parent="1">
          <mxGeometry x="30" y="110" width="30" height="30" as="geometry" />
        </mxCell>
        <mxCell id="CudXulxGL8s81kNJGCqv-149" value="FK2" style="text;html=1;strokeColor=none;fillColor=none;align=center;verticalAlign=middle;whiteSpace=wrap;rounded=0;" vertex="1" parent="1">
          <mxGeometry x="30" y="140" width="30" height="30" as="geometry" />
        </mxCell>
      </root>
    </mxGraphModel>
  </diagram>
</mxfile>
